<svg xmlns="http://www.w3.org/2000/svg" viewBox="0 0 512 512" width="32" height="32">
  <defs>
    <linearGradient id="pawGradient" x1="0%" y1="0%" x2="100%" y2="100%">
      <stop offset="0%" stop-color="#4CAF50" />
      <stop offset="100%" stop-color="#2E7D32" />
    </linearGradient>
  </defs>
  <path fill="url(#pawGradient)" d="M256 0C114.6 0 0 114.6 0 256s114.6 256 256 256s256-114.6 256-256S397.4 0 256 0zM80 316.8c-13.25 0-24-10.75-24-24s10.75-24 24-24s24 10.75 24 24S93.25 316.8 80 316.8zM160 212.8c-13.25 0-24-10.75-24-24s10.75-24 24-24s24 10.75 24 24S173.3 212.8 160 212.8zM352 212.8c-13.25 0-24-10.75-24-24s10.75-24 24-24s24 10.75 24 24S365.3 212.8 352 212.8zM432 316.8c-13.25 0-24-10.75-24-24s10.75-24 24-24s24 10.75 24 24S445.3 316.8 432 316.8zM256 400c-30.93 0-56-25.07-56-56s25.07-56 56-56s56 25.07 56 56S286.9 400 256 400z"/>
</svg>